<?xml version="1.0" encoding="UTF-8"?> <svg xmlns="http://www.w3.org/2000/svg" id="Layer_2" data-name="Layer 2" viewBox="0 0 196.06 85.82"><defs><style> .cls-1 { fill: #fff; } .cls-2 { fill: none; stroke: #000; stroke-miterlimit: 10; stroke-width: .25px; } </style></defs><g id="Layer_1-2" data-name="Layer 1"><g><path class="cls-1" d="M21.94,9.82l6.1-5.2,13.5-1.1,11.1,5.8,4.9,13.4,4,11.5,1.9,6.1-3.6,7.5s-1.5,8.9-1.5,9.1-7.2,15.4-7.2,15.4l-12.4,5.6-14.6-4.7-5.9-13.6-5.2-12.6s-1.8-4.1-2-4.4,.2-7.1,.2-7.1l1.3-6.5-6.6-1-4.4-3.6,.1-3.1,3.5-4.3,7.5-2.3,6.1-.5,3.2-4.4Z"></path><path d="M27.34,60.22c-1.5,.9-1.2,1.5,4.5,.5,5-.9,13.4,.1,15.3,.4,1.2,.1,.3-1.9,.2-2.4-.1-.2-.2-.3-.4-.3-6.5-.8-13-.2-19.3,1.6,0,.1-.3,.2-.3,.2Z"></path><path d="M63.14,37.42c-.2-1.1-.5-2.1-.9-3.1h-.7c-.5,0-1.1,.1-1.6,.3v.2c-.1,.2-.2,.3-.4,.4-1,.3-1.2,1.5-1.4,2.4-1.1,4.7-2.5,8.3-8,8.3h-.1c-1.2,.1-2.5,0-3.7-.2,4,3.3,6.1,8.4,5.5,13.6v.2c-.3,3.7-2.3,6-5.3,5.5-.3-.1-.6-.1-.9-.2h0c-1.8-.3-3.6-.3-5.4,0,2.6,.6,4.9,2,6.6,4-5.7,4.9-14.1,4.9-19.7,0,1.7-2,4-3.4,6.6-4-1.8-.3-3.6-.4-5.4,0h0c-3.3,1.1-5.9-1.1-6.2-5.3v-.5c-.5-5.1,1.6-10,5.5-13.3-1.2,.2-2.5,.3-3.7,.2h-.2c-5.5,0-6.9-3.6-8-8.3-.3-.9-.4-2.1-1.4-2.4-.2-.1-.3-.2-.4-.4v-.2c-.5-.2-1-.3-1.6-.3h-.7c-1.8,4.3-1.5,10.3,1,14.1-2.1,5-2.2,10.6-.3,15.7-.4-2.7-.2-5.4,.8-7.9-.9,4.9,.4,9.9,3.5,13.7-.6-2.3-.8-4.8-.5-7.2,0,.1,0,.2,.1,.2,1.6,7.6,7,14.2,13.8,18-.7-.8-1.3-1.7-1.9-2.6,6.6,3.3,11.3,3.6,17.9,0-.6,.9-1.2,1.8-1.9,2.7,6.8-3.7,12.2-10.4,13.8-18v-.2c.3,2.4,.1,4.8-.5,7.2,3.1-3.8,4.4-8.9,3.5-13.7,.2,1.3,.7,2.4,.9,3.7,.1,1.4,.1,2.8-.1,4.2,1.1-2.9,1.5-6,1.3-9.1-.2-2.2-.7-4.5-1.6-6.5,1.7-3.1,2.3-7.6,1.7-11.2Zm-50.2,5.3c-1.2,0-1.2-4.3,0-4.3,1.2,0,1.2,4.3,0,4.3h0Zm47.7,0c-1.2,0-1.2-4.3,0-4.3,1.2,0,1.2,4.3,0,4.3h0Z"></path><path class="cls-1" d="M61.84,34.32h.4c1.8,4.3,1.5,10.3-1,14.1,.9,2.1,1.4,4.3,1.6,6.5,.2,3.1-.2,6.2-1.3,9.1,.2-1.4,.2-2.8,.1-4.2-.1-1.3-.6-2.5-.9-3.7,.9,4.9-.4,9.9-3.5,13.7,.6-2.3,.8-4.8,.5-7.2v.2c-1.6,7.6-7,14.3-13.8,18,.7-.8,1.3-1.7,1.9-2.7-6.6,3.6-11.3,3.3-17.9,0,.6,.9,1.2,1.8,1.9,2.6-6.8-3.7-12.2-10.3-13.8-18,0-.1,0-.2-.1-.2-.3,2.4-.1,4.8,.5,7.2-3.1-3.8-4.4-8.9-3.5-13.7-.9,2.5-1.2,5.3-.8,7.9-1.9-5.1-1.8-10.7,.3-15.7-2.5-3.8-2.8-9.8-1-14.1h.7c.5,0,1.1,.1,1.6,.3v.2c.1,.2,.2,.3,.4,.4,1,.3,1.2,1.5,1.4,2.4,1.1,4.7,2.5,8.3,8,8.3h.2c1.2,.1,2.5,0,3.7-.2-3.9,3.2-6,8.2-5.5,13.3v.5c.3,4.1,2.7,6.4,6.2,5.3h0c1.8-.3,3.6-.3,5.4,0-2.6,.6-4.9,2-6.6,4,5.7,4.9,14.1,4.9,19.7,0-1.7-2-4-3.4-6.6-4,1.8-.3,3.6-.4,5.4,0h0c.3,.1,.6,.1,.9,.2,3,.5,5-2,5.3-5.5v-.2c.6-5.2-1.4-10.3-5.5-13.6,1.2,.2,2.5,.3,3.7,.2h.1c5.4,0,6.9-3.7,8-8.3,.3-.9,.4-2.1,1.4-2.4,.2-.1,.3-.2,.4-.4v-.2c.5-.2,1-.3,1.6-.3,.3,.2,.4,.2,.5,.2m-1.2,8.4c1.2,0,1.2-4.3,0-4.3-1.2,0-1.2,4.3,0,4.3m-47.7,0c1.2,0,1.2-4.3,0-4.3-1.2,0-1.2,4.3,0,4.3m48.9-10h-.4c-1,.1-1.9,.3-2.8,.7l-.1,.5c-1.7,1.1-1.6,2.6-2.1,4.1-1,4-2.2,6.3-6.5,6.3h0c-2.3,.3-7.3-1.1-9.6-1.5l5,4.1c3.6,3,5.5,7.6,4.9,12.2h0v.1c-.2,2.1-1,4.5-3.4,4.2-.2,0-.3-.1-.5-.1h0l-.3-.1h-.2c-2.8-.6-6.1,0-8.9,.6-2.8-.6-6-1.2-8.8-.6h-.2l-.3,.1c-2.7,.8-3.8-1.4-4-3.9v-.6c-.4-4.5,1.4-8.9,4.9-11.8l5-4.1c-2.3,.4-7.2,1.7-9.6,1.4h0c-4.8,.1-5.6-3-6.6-7.2-.3-1-.5-2.4-2-3.3l-.2-.5c-.8-.4-1.7-.6-2.6-.7-.7,0-1.3,0-1.9,.2-2.3,5-2.2,10.8,.4,15.7-1.6,4.2-1.9,8.8-.9,13.2,.3,1.9,5.8,15.5,6.6,17.6l-1.5-8.9c.1,.1,.2,.3,.3,.4l4.8,5.8-.8-2.9c2.6,3.6,6,6.5,9.9,8.6l6.7,3.5-3.2-4c2.8,.9,5.7,.9,8.5,.1l-3.2,3.9,6.8-3.4c3.9-2.1,7.3-5.1,9.9-8.7l-.8,3c.3-.4,5.2-6.3,5.3-6.5l-1.2,8.3,5.2-13.9c1.2-3.1,1.6-6.5,1.4-9.8-.2-2.1-.6-4.2-1.4-6.3,2.5-4.9,2.7-10.7,.4-15.7-1,0-1.5-.1-2-.1h0ZM29.34,68.62c1.3-1.1,2.9-1.9,4.6-2.3l2.9-.6,2.9,.6c1.7,.4,3.3,1.2,4.6,2.3-4.6,3-10.5,3-15,0h0Z"></path><path d="M14.24,31.42v.3c.1,.4,.3,1.1,.5,1.9,.1,.2,.2,.3,.4,.4,1,.3,1.1,1.4,1.3,2.3,1,4.4,2.4,7.9,7.6,7.9h.1c5.6,.4,8.8-2.1,10.3-7.4,.3-1.2,.9-2.2,2.3-2.2,.5,0,1,.2,1.4,.5,.4,.5,.7,1,.8,1.7,1.5,5.3,4.8,7.8,10.3,7.4h.2c5.2,0,6.6-3.5,7.6-7.9,.2-.8,.4-2,1.3-2.3,.2-.1,.3-.2,.4-.4,.2-.8,.4-1.4,.5-1.9v-.2h0s0-.1,.1-.2c.7-2.1,7.3-23.8-17.1-28l.1-.7c0-.4-.2-.7-.6-.7l-2.5-.3c-.4,0-.7,.2-.7,.6l-.1,.7c-3.8-.3-9.9-.2-13.9,2.7-6.3,4.5-6.4,9.2-6.4,9.2,0,0-11.5-1.2-15.8,4.6-3.8,5.2,3.4,9.7,11.9,12q-.1,0,0,0Zm41.3-1.4c.8,.3,1.4,.5,2,.7-5.2-.4-10.5-.7-15.6,.2-1.7,.2-3.4,.9-5.1,1-1.7-.1-3.4-.8-5.1-1-5.1-.9-10.2-.6-15.3-.3,8-7.9,30.1-3.6,39.1-.6h0ZM36.14,4.02c11.1-.1,19.8,9.9,17.6,20.5-11.2-7.6-26.1-10.4-27-10.3,9.3,1,18.2,4.1,26.1,9.1,.9-15.3-17.7-23.7-29.4-14.2,3.4-3.3,8-5.2,12.7-5.1h0ZM2.64,21.82c.1-.5,.3-1.1,.6-1.5l.1-.1c.1-.1,.3-.3,.4-.4h0c7.1-6.7,38.5-2.7,44.5,5.1-.1,.2-.1,.5-.1,.7-2.8-3.3-10.9-6.4-20.7-7.6-14.6-2.2-32,2.1-19.2,10.1-3.7-2-5.9-4.2-5.6-6.3h0Z"></path><path class="cls-1" d="M39.44,1.52h0l2.5,.3c.4,.1,.6,.4,.6,.7l-.1,.7c24.3,4.2,17.8,25.9,17.1,28,0,.1-.1,.2-.1,.2h0v.2c-.1,.4-.3,1.1-.5,1.9-.1,.2-.2,.3-.4,.4-1,.3-1.1,1.4-1.3,2.3-1,4.4-2.4,7.9-7.6,7.9h-.2c-5.5,.4-8.8-2.1-10.3-7.4-.1-.6-.4-1.2-.8-1.7-.4-.3-.9-.5-1.4-.5-1.4,0-2,1-2.3,2.2-1.5,5.3-4.8,7.8-10.3,7.4h-.1c-5.2,0-6.6-3.5-7.6-7.9-.2-.9-.4-2-1.3-2.3-.2-.1-.3-.2-.4-.4-.2-.8-.4-1.4-.5-1.9v-.3h0C6.04,29.02-1.16,24.62,2.94,19.12c3.7-4.7,11.4-4.9,15.8-4.6,0,0,.1-4.7,6.4-9.2,4-2.8,9.4-3,13.9-2.7l.1-.7c-.3-.2-.1-.4,.3-.4m-16,7.5c11.7-9.5,30.3-1,29.4,14.2-7.9-5-16.8-8.1-26.1-9.1,.8-.1,15.8,2.7,27,10.3C56.94,7.42,35.64-2.68,23.44,9.02M8.24,28.02c-10.5-6.4-.7-10.7,11.1-10.6,9.4-.3,25.2,3.5,28.8,8.2,0-.2,.1-.5,.1-.7-5.8-7.3-35.8-12.2-44.5-5.1h0c-.1,.1-.3,.3-.4,.4,0,0,0,.1-.1,.1-2,2.9,.8,5.5,5,7.7m8.1,2.7c5.1-.4,10.3-.6,15.3,.3,1.7,.2,3.4,.9,5.1,1,1.7-.1,3.4-.8,5.1-1,5.2-.9,10.4-.6,15.6-.2-9.1-3.6-32.7-8.4-41.1-.1M39.44,.02c-.8,0-1.6,.5-1.9,1.2-5.1-.3-10.6,.8-13.6,3-4.7,3.3-6.2,6.8-6.8,8.8-4.6-.1-11.8,.3-15.7,5.3C.04,19.92-.36,22.22,.34,24.22c1.6,4.5,8.3,7.2,12.7,8.4,.3,1,.4,2.4,1.7,2.8,1.6,5.8,2.6,10,9.3,10.3h.3c6.2,.3,10-2.3,11.8-8.5,.1-.3,.2-.7,.4-1,.1-.1,.3-.1,.4-.1s.3,0,.4,.1c.2,.3,.3,.6,.4,1,1.8,6.1,5.6,8.8,11.8,8.5h.3c6.6-.2,7.8-4.5,9.3-10.3h0c.7-.2,1.2-.8,1.4-1.4,.2-.8,.4-1.5,.5-1.9v-.2s0-.1,.1-.2c3.6-11.1,1.1-26.3-16.9-29.7-.2-.9-.9-1.6-1.8-1.7-.4,0-3-.4-3-.3h0ZM22.74,28.82c7.2-2,15.3-1.1,22.6,.1-2.3,.2-4.6,.5-6.8,1.1-.6,.2-1.2,.3-1.8,.3-1.6-.1-3.2-.8-4.9-1-2.9-.3-6-.6-9.1-.5h0Z"></path><path d="M45.14,53.42c1.8-5.4-6.4-7.8-8.4-2.6h0c-2-5.1-10.2-2.7-8.4,2.6-3.4-5.4,4.1-10.2,8.4-6h0c4.3-4.2,11.8,.7,8.4,6Z"></path><path d="M35.24,52.12c0,.7-.1,1.3-.4,1.9-.2-.6-.3-1.3-.3-2-1.1,.8-4.9,.5-4.9-.8,.1-1.6,5.3-1.6,5.5,0,.1,.3,.1,.6,.1,.9h0Z"></path><path d="M43.84,51.22c0,1.4-3.8,1.6-4.9,.8,0,.7-.1,1.4-.3,2-.4-.9-.5-1.9-.3-2.8,.1-1.6,5.4-1.6,5.5,0Z"></path></g><g><g><path d="M91.04,51.51v-3.25c-.13,0-4.66,0-4.66,0v3.26h-10.19v-17.24h16.81c1.35,0,2.61,.16,3.73,.48,1.4,.4,2.56,1.1,3.43,2.09,.98,1.11,1.48,2.54,1.48,4.25,0,1.15-.24,2.16-.72,3.02-.03,.05-.06,.11-.09,.16,.23,.52,.39,1.16,.39,1.94v5.31h-10.19Z"></path><polygon points="114.33 51.51 113.19 49.75 107.88 49.75 106.75 51.51 94.92 51.51 106.47 34.26 114.51 34.26 126.19 51.51 114.33 51.51"></polygon><path d="M119.45,51.51v-17.24h15.86c1.92,0,3.5,.19,4.83,.59,1.47,.43,2.67,1.07,3.59,1.89,.96,.86,1.64,1.87,2.05,3.01,.36,1,.54,2.05,.54,3.13s-.21,2.21-.62,3.23c-.45,1.12-1.17,2.11-2.15,2.95-.94,.8-2.13,1.42-3.55,1.85-1.32,.4-2.85,.59-4.69,.59h-15.86Z"></path><path d="M143,51.51v-17.24h15.86c1.92,0,3.5,.19,4.83,.59,1.47,.43,2.67,1.07,3.59,1.89,.96,.86,1.64,1.87,2.05,3.01,.36,1,.54,2.05,.54,3.13s-.21,2.21-.62,3.23c-.45,1.12-1.17,2.11-2.15,2.95-.94,.8-2.13,1.42-3.55,1.85-1.32,.4-2.85,.59-4.69,.59h-15.86Z"></path><polygon points="171.43 51.51 171.43 46.76 160.83 34.26 173.65 34.26 176.54 37.9 179.4 34.26 192.24 34.26 181.62 46.76 181.62 51.51 171.43 51.51"></polygon><rect x="185" y="40.4" width="11.06" height="11.06"></rect></g><g><g><path class="cls-1" d="M78.75,48.67v-11.58h13.98c1.1,0,2.08,.12,2.96,.37,.87,.25,1.57,.66,2.08,1.24,.51,.58,.77,1.37,.77,2.37,0,.66-.12,1.21-.36,1.65-.24,.43-.57,.77-.99,1.01-.42,.24-.9,.42-1.45,.52-.54,.11-1.11,.17-1.7,.2l-1.32-.25c1.43,.01,2.54,.07,3.32,.18,.78,.11,1.32,.3,1.63,.59s.46,.69,.46,1.22v2.48h-4.52v-1.94c0-.36-.07-.64-.21-.82-.14-.19-.44-.32-.9-.39-.46-.07-1.18-.11-2.14-.11h-7.07v3.26h-4.52Zm4.52-6.28h9.46c.36,0,.67-.06,.91-.18,.25-.12,.37-.35,.37-.69,0-.31-.12-.53-.37-.64-.25-.11-.55-.17-.91-.17h-9.46v1.68Z"></path><path class="cls-2" d="M78.75,48.67v-11.58h13.98c1.1,0,2.08,.12,2.96,.37,.87,.25,1.57,.66,2.08,1.24,.51,.58,.77,1.37,.77,2.37,0,.66-.12,1.21-.36,1.65-.24,.43-.57,.77-.99,1.01-.42,.24-.9,.42-1.45,.52-.54,.11-1.11,.17-1.7,.2l-1.32-.25c1.43,.01,2.54,.07,3.32,.18,.78,.11,1.32,.3,1.63,.59s.46,.69,.46,1.22v2.48h-4.52v-1.94c0-.36-.07-.64-.21-.82-.14-.19-.44-.32-.9-.39-.46-.07-1.18-.11-2.14-.11h-7.07v3.26h-4.52Zm4.52-6.28h9.46c.36,0,.67-.06,.91-.18,.25-.12,.37-.35,.37-.69,0-.31-.12-.53-.37-.64-.25-.11-.55-.17-.91-.17h-9.46v1.68Z"></path></g><g><path class="cls-1" d="M112.73,37.09h-5.02l-7.76,11.58h4.97l1.13-1.76h8.4l1.14,1.76h4.98l-7.84-11.58Zm-4.94,7.11l2.45-3.81,2.46,3.81h-4.91Z"></path><path class="cls-2" d="M112.73,37.09h-5.02l-7.76,11.58h4.97l1.13-1.76h8.4l1.14,1.76h4.98l-7.84-11.58Zm-4.94,7.11l2.45-3.81,2.46,3.81h-4.91Z"></path></g><g><path class="cls-1" d="M135.03,37.1c1.63,0,2.97,.16,4.03,.47,1.06,.31,1.89,.74,2.5,1.28,.6,.54,1.03,1.16,1.27,1.85s.37,1.42,.37,2.18-.14,1.49-.42,2.18-.73,1.31-1.37,1.85c-.63,.54-1.47,.97-2.51,1.28-1.04,.31-2.34,.47-3.88,.47h-13.02v-11.58h13.02Zm-8.5,7.96h8.32c.67,0,1.25-.04,1.72-.14s.85-.23,1.13-.41c.28-.18,.49-.41,.61-.68,.13-.27,.19-.59,.19-.95s-.06-.68-.19-.95c-.13-.27-.33-.5-.61-.68-.28-.18-.66-.32-1.13-.41s-1.04-.14-1.72-.14h-8.32v4.34Z"></path><path class="cls-2" d="M135.03,37.1c1.63,0,2.97,.16,4.03,.47,1.06,.31,1.89,.74,2.5,1.28,.6,.54,1.03,1.16,1.27,1.85s.37,1.42,.37,2.18-.14,1.49-.42,2.18-.73,1.31-1.37,1.85c-.63,.54-1.47,.97-2.51,1.28-1.04,.31-2.34,.47-3.88,.47h-13.02v-11.58h13.02Zm-8.5,7.96h8.32c.67,0,1.25-.04,1.72-.14s.85-.23,1.13-.41c.28-.18,.49-.41,.61-.68,.13-.27,.19-.59,.19-.95s-.06-.68-.19-.95c-.13-.27-.33-.5-.61-.68-.28-.18-.66-.32-1.13-.41s-1.04-.14-1.72-.14h-8.32v4.34Z"></path></g><g><path class="cls-1" d="M158.58,37.1c1.63,0,2.97,.16,4.03,.47,1.06,.31,1.89,.74,2.5,1.28,.6,.54,1.03,1.16,1.27,1.85s.37,1.42,.37,2.18-.14,1.49-.42,2.18-.73,1.31-1.37,1.85c-.63,.54-1.47,.97-2.51,1.28-1.04,.31-2.34,.47-3.88,.47h-13.02v-11.58h13.02Zm-8.5,7.96h8.32c.67,0,1.25-.04,1.72-.14s.85-.23,1.13-.41c.28-.18,.49-.41,.61-.68,.13-.27,.19-.59,.19-.95s-.06-.68-.19-.95c-.13-.27-.33-.5-.61-.68-.28-.18-.66-.32-1.13-.41s-1.04-.14-1.72-.14h-8.32v4.34Z"></path><path class="cls-2" d="M158.58,37.1c1.63,0,2.97,.16,4.03,.47,1.06,.31,1.89,.74,2.5,1.28,.6,.54,1.03,1.16,1.27,1.85s.37,1.42,.37,2.18-.14,1.49-.42,2.18-.73,1.31-1.37,1.85c-.63,.54-1.47,.97-2.51,1.28-1.04,.31-2.34,.47-3.88,.47h-13.02v-11.58h13.02Zm-8.5,7.96h8.32c.67,0,1.25-.04,1.72-.14s.85-.23,1.13-.41c.28-.18,.49-.41,.61-.68,.13-.27,.19-.59,.19-.95s-.06-.68-.19-.95c-.13-.27-.33-.5-.61-.68-.28-.18-.66-.32-1.13-.41s-1.04-.14-1.72-.14h-8.32v4.34Z"></path></g><g><polygon class="cls-1" points="185.84 37.09 178.51 45.72 178.51 48.67 173.99 48.67 173.99 45.72 166.67 37.09 172 37.09 176.27 42.48 180.5 37.09 185.84 37.09"></polygon><polygon class="cls-2" points="185.84 37.09 178.51 45.72 178.51 48.67 173.99 48.67 173.99 45.72 166.67 37.09 172 37.09 176.27 42.48 180.5 37.09 185.84 37.09"></polygon></g><g><path class="cls-1" d="M187.55,43.24h5.39v5.39h-5.39v-5.39Z"></path><path class="cls-2" d="M187.55,43.24h5.39v5.39h-5.39v-5.39Z"></path></g></g></g></g></svg> 